<?xml version="1.0" encoding="utf-8"?>
<!DOCTYPE svg PUBLIC "-//W3C//DTD SVG 1.1//EN" "http://www.w3.org/Graphics/SVG/1.1/DTD/svg11.dtd">
<svg version="1.1" id="CorelDraw-logo" xmlns="http://www.w3.org/2000/svg" xmlns:xlink="http://www.w3.org/1999/xlink" x="0px" y="0px" width="100px" height="23px" viewBox="0 0 100 23">
<title>CorelDraw logo (since 2017)</title>
<g id="Lettering" fill="#333333">
	<path d="M4.315,22.583c-0.495,0-0.935-0.112-1.321-0.336
		c-0.385-0.224-0.688-0.546-0.906-0.967c-0.219-0.42-0.328-0.927-0.328-1.519c0-0.587,0.112-1.09,0.337-1.511
		c0.224-0.42,0.532-0.744,0.923-0.971c0.392-0.227,0.837-0.34,1.338-0.34c0.392,0,0.721,0.071,0.989,0.212s0.482,0.294,0.643,0.46
		l-0.397,0.448c-0.144-0.144-0.311-0.266-0.5-0.365s-0.429-0.149-0.716-0.149c-0.38,0-0.711,0.09-0.993,0.27
		c-0.282,0.18-0.5,0.433-0.652,0.76s-0.229,0.716-0.229,1.17c0,0.686,0.162,1.229,0.487,1.631c0.325,0.401,0.79,0.602,1.394,0.602
		c0.202,0,0.395-0.029,0.579-0.087s0.331-0.137,0.44-0.237v-1.419h-1.2v-0.572h1.856v2.291c-0.178,0.183-0.418,0.333-0.721,0.453
		C5.036,22.523,4.695,22.583,4.315,22.583z"/>
	<path d="M7.398,22.483v-5.445h1.77c0.386,0,0.728,0.048,1.027,0.146c0.299,0.097,0.534,0.257,0.704,0.481
		c0.169,0.224,0.254,0.524,0.254,0.901c0,0.42-0.115,0.759-0.345,1.017c-0.23,0.257-0.541,0.433-0.932,0.527l1.441,2.374h-0.812
		l-1.364-2.299H8.114v2.299H7.398z M8.114,19.62h0.95c0.443,0,0.783-0.087,1.019-0.262s0.354-0.438,0.354-0.792
		c0-0.36-0.118-0.611-0.354-0.755s-0.576-0.216-1.019-0.216h-0.95V19.62z"/>
	<path d="M11.477,22.483l1.917-5.445h0.811l1.917,5.445h-0.768l-0.535-1.66h-2.063l-0.543,1.66H11.477z
		 M13.204,19.437l-0.268,0.83h1.7l-0.268-0.83c-0.104-0.305-0.201-0.607-0.293-0.909c-0.092-0.301-0.184-0.61-0.276-0.925h-0.035
		c-0.086,0.315-0.176,0.624-0.268,0.925C13.405,18.83,13.307,19.132,13.204,19.437z"/>
	<path d="M16.674,22.483v-5.445h1.614c0.426,0,0.797,0.05,1.113,0.149s0.564,0.267,0.743,0.502
		c0.178,0.235,0.268,0.552,0.268,0.951c0,0.57-0.193,0.993-0.579,1.27c-0.385,0.277-0.889,0.415-1.51,0.415H17.39v2.158H16.674z
		 M17.39,19.761h0.846c0.495,0,0.862-0.09,1.101-0.27s0.358-0.463,0.358-0.851c0-0.393-0.125-0.666-0.375-0.818
		c-0.25-0.152-0.623-0.228-1.118-0.228H17.39V19.761z"/>
	<path d="M21.294,22.483v-5.445h0.716v2.283h2.633v-2.283h0.725v5.445h-0.725v-2.565H22.01v2.565H21.294z"/>
	<path d="M26.891,22.483v-5.445h0.716v5.445H26.891z"/>
	<path d="M31.02,22.583c-0.472,0-0.893-0.112-1.265-0.336c-0.371-0.224-0.665-0.546-0.88-0.967
		c-0.216-0.42-0.324-0.927-0.324-1.519c0-0.587,0.109-1.09,0.328-1.511s0.518-0.744,0.898-0.971c0.379-0.227,0.808-0.34,1.286-0.34
		c0.345,0,0.65,0.068,0.915,0.204c0.265,0.135,0.478,0.292,0.639,0.469l-0.389,0.448c-0.149-0.155-0.319-0.279-0.509-0.374
		s-0.406-0.141-0.647-0.141c-0.357,0-0.669,0.09-0.937,0.27c-0.268,0.18-0.475,0.433-0.622,0.76c-0.146,0.327-0.22,0.716-0.22,1.17
		c0,0.454,0.072,0.848,0.216,1.183c0.144,0.335,0.346,0.593,0.608,0.776c0.262,0.183,0.571,0.274,0.928,0.274
		c0.271,0,0.512-0.055,0.725-0.166c0.213-0.11,0.409-0.26,0.587-0.448l0.397,0.432c-0.225,0.249-0.478,0.443-0.76,0.581
		C31.713,22.513,31.388,22.583,31.02,22.583z"/>
	<path d="M35.173,22.583c-0.397,0-0.766-0.073-1.105-0.22c-0.34-0.147-0.633-0.342-0.881-0.585l0.432-0.481
		c0.202,0.205,0.439,0.37,0.712,0.494c0.273,0.125,0.557,0.187,0.85,0.187c0.374,0,0.665-0.082,0.872-0.245
		c0.207-0.163,0.311-0.378,0.311-0.644c0-0.188-0.042-0.337-0.125-0.448c-0.083-0.11-0.196-0.205-0.337-0.282
		c-0.141-0.077-0.301-0.155-0.479-0.232l-0.812-0.34c-0.178-0.072-0.355-0.166-0.531-0.282c-0.175-0.116-0.322-0.266-0.44-0.448
		c-0.118-0.183-0.177-0.407-0.177-0.672c0-0.277,0.076-0.524,0.229-0.743c0.152-0.218,0.364-0.39,0.634-0.514
		s0.575-0.187,0.915-0.187c0.339,0,0.653,0.063,0.941,0.187c0.288,0.125,0.532,0.286,0.734,0.485l-0.389,0.448
		c-0.173-0.161-0.364-0.287-0.574-0.378s-0.447-0.137-0.712-0.137c-0.316,0-0.571,0.072-0.764,0.216s-0.289,0.337-0.289,0.581
		c0,0.171,0.047,0.314,0.143,0.427c0.095,0.114,0.214,0.207,0.358,0.278c0.144,0.072,0.291,0.138,0.44,0.199l0.803,0.332
		c0.219,0.088,0.416,0.195,0.591,0.319c0.176,0.125,0.315,0.277,0.419,0.457c0.104,0.18,0.155,0.405,0.155,0.676
		c0,0.288-0.078,0.549-0.233,0.785c-0.155,0.235-0.377,0.422-0.665,0.56S35.57,22.583,35.173,22.583z"/>
	<path d="M41.477,22.583c-0.397,0-0.766-0.073-1.105-0.22c-0.34-0.147-0.633-0.342-0.881-0.585l0.432-0.481
		c0.202,0.205,0.439,0.37,0.712,0.494c0.273,0.125,0.557,0.187,0.85,0.187c0.374,0,0.665-0.082,0.872-0.245
		c0.207-0.163,0.311-0.378,0.311-0.644c0-0.188-0.042-0.337-0.125-0.448c-0.083-0.11-0.196-0.205-0.337-0.282
		c-0.141-0.077-0.301-0.155-0.479-0.232l-0.812-0.34c-0.178-0.072-0.355-0.166-0.531-0.282c-0.175-0.116-0.322-0.266-0.44-0.448
		c-0.118-0.183-0.177-0.407-0.177-0.672c0-0.277,0.076-0.524,0.229-0.743c0.152-0.218,0.364-0.39,0.634-0.514
		s0.575-0.187,0.915-0.187c0.339,0,0.653,0.063,0.941,0.187c0.288,0.125,0.532,0.286,0.734,0.485l-0.389,0.448
		c-0.173-0.161-0.364-0.287-0.574-0.378s-0.447-0.137-0.712-0.137c-0.316,0-0.571,0.072-0.764,0.216s-0.289,0.337-0.289,0.581
		c0,0.171,0.047,0.314,0.143,0.427c0.095,0.114,0.214,0.207,0.358,0.278c0.144,0.072,0.291,0.138,0.44,0.199l0.803,0.332
		c0.219,0.088,0.416,0.195,0.591,0.319c0.176,0.125,0.315,0.277,0.419,0.457c0.104,0.18,0.155,0.405,0.155,0.676
		c0,0.288-0.078,0.549-0.233,0.785c-0.155,0.235-0.377,0.422-0.665,0.56S41.874,22.583,41.477,22.583z"/>
	<path d="M46.245,22.583c-0.386,0-0.732-0.075-1.04-0.224c-0.308-0.149-0.551-0.396-0.729-0.739
		c-0.178-0.343-0.268-0.805-0.268-1.386v-3.195h0.716v3.212c0,0.438,0.059,0.782,0.177,1.034c0.118,0.252,0.276,0.43,0.475,0.535
		c0.199,0.105,0.421,0.158,0.669,0.158c0.253,0,0.48-0.052,0.682-0.158c0.201-0.105,0.361-0.283,0.479-0.535
		c0.118-0.252,0.177-0.596,0.177-1.034v-3.212h0.691v3.195c0,0.581-0.089,1.043-0.268,1.386c-0.178,0.343-0.42,0.589-0.725,0.739
		C46.976,22.508,46.631,22.583,46.245,22.583z"/>
	<path d="M49.532,22.483v-5.445h0.716v5.445H49.532z"/>
	<path d="M52.699,22.483v-4.864H50.99v-0.581h4.144v0.581h-1.709v4.864H52.699z"/>
	<path d="M56.151,22.483v-5.445h3.263v0.581h-2.546v1.71h2.149v0.589h-2.149v1.976H59.5v0.589H56.151z"/>
	<path d="M6.115,14.854c-0.948,0-1.809-0.221-2.583-0.663s-1.39-1.091-1.847-1.946C1.228,11.389,1,10.349,1,9.125
		c0-1.213,0.234-2.252,0.702-3.12c0.468-0.867,1.095-1.53,1.881-1.989s1.653-0.688,2.601-0.688c0.717,0,1.353,0.142,1.908,0.425
		c0.555,0.283,1.011,0.612,1.37,0.986L8.387,6.014c-0.289-0.294-0.61-0.529-0.962-0.705S6.676,5.045,6.237,5.045
		c-0.613,0-1.159,0.162-1.639,0.484c-0.48,0.323-0.855,0.785-1.127,1.386c-0.272,0.601-0.408,1.32-0.408,2.159
		c0,1.27,0.283,2.264,0.85,2.984s1.324,1.079,2.271,1.079c0.509,0,0.959-0.104,1.353-0.314c0.393-0.209,0.751-0.484,1.075-0.824
		l1.075,1.241c-0.462,0.521-0.992,0.921-1.587,1.199C7.505,14.715,6.844,14.854,6.115,14.854z"/>
	<path d="M14.26,14.854c-0.705,0-1.364-0.173-1.977-0.519s-1.11-0.844-1.491-1.496
		c-0.381-0.651-0.572-1.437-0.572-2.354c0-0.929,0.191-1.72,0.572-2.372c0.381-0.651,0.878-1.15,1.491-1.496
		c0.613-0.345,1.271-0.518,1.977-0.518c0.717,0,1.381,0.173,1.994,0.518c0.613,0.346,1.11,0.845,1.491,1.496
		c0.382,0.652,0.572,1.442,0.572,2.372c0,0.918-0.19,1.703-0.572,2.354c-0.381,0.652-0.878,1.15-1.491,1.496
		S14.977,14.854,14.26,14.854z M14.26,13.256c0.625,0,1.116-0.255,1.474-0.765c0.358-0.51,0.538-1.178,0.538-2.006
		c0-0.838-0.18-1.513-0.538-2.023c-0.358-0.51-0.85-0.765-1.474-0.765c-0.624,0-1.113,0.255-1.465,0.765
		c-0.353,0.51-0.529,1.185-0.529,2.023c0,0.828,0.176,1.496,0.529,2.006C13.147,13.001,13.636,13.256,14.26,13.256z"/>
	<path d="M19.488,14.65V6.303h1.615l0.136,1.479h0.068c0.294-0.544,0.651-0.96,1.071-1.25s0.85-0.433,1.292-0.433
		c0.396,0,0.714,0.057,0.952,0.17l-0.34,1.7c-0.147-0.045-0.284-0.079-0.408-0.102c-0.125-0.022-0.278-0.034-0.459-0.034
		c-0.329,0-0.674,0.127-1.037,0.382s-0.674,0.7-0.935,1.334v5.1H19.488z"/>
	<path d="M28.754,14.854c-0.771,0-1.468-0.173-2.091-0.519c-0.624-0.346-1.117-0.844-1.479-1.496
		c-0.363-0.651-0.544-1.437-0.544-2.354c0-0.907,0.184-1.688,0.553-2.346c0.368-0.657,0.847-1.161,1.437-1.513
		c0.589-0.351,1.207-0.527,1.853-0.527c0.759,0,1.394,0.167,1.904,0.501c0.51,0.334,0.896,0.799,1.156,1.394
		c0.26,0.595,0.391,1.283,0.391,2.065c0,0.408-0.029,0.725-0.085,0.952h-5.304c0.09,0.737,0.357,1.309,0.799,1.717
		c0.442,0.408,0.997,0.612,1.666,0.612c0.363,0,0.7-0.054,1.012-0.162c0.312-0.107,0.621-0.257,0.926-0.45l0.663,1.224
		c-0.397,0.261-0.839,0.476-1.326,0.646C29.797,14.769,29.287,14.854,28.754,14.854z M26.527,9.686h3.706
		c0-0.646-0.142-1.153-0.425-1.521c-0.284-0.368-0.708-0.553-1.275-0.553c-0.487,0-0.921,0.179-1.3,0.536
		C26.853,8.504,26.618,9.017,26.527,9.686z"/>
	<path d="M35.244,14.854c-0.691,0-1.182-0.209-1.471-0.629c-0.289-0.419-0.433-0.992-0.433-1.717V3.532h1.955v9.078
		c0,0.238,0.045,0.405,0.136,0.501c0.09,0.097,0.187,0.145,0.289,0.145c0.045,0,0.087-0.002,0.127-0.008
		c0.04-0.006,0.099-0.014,0.178-0.026l0.255,1.462c-0.114,0.045-0.258,0.085-0.434,0.119C35.672,14.837,35.471,14.854,35.244,14.854
		z"/>
	<path d="M37.846,14.65V3.532h2.975c1.7,0,3.026,0.459,3.978,1.377c0.952,0.918,1.428,2.295,1.428,4.131
		c0,1.847-0.47,3.244-1.411,4.19s-2.238,1.419-3.893,1.419H37.846z M39.818,13.052h0.867c1.122,0,1.989-0.326,2.601-0.978
		c0.612-0.651,0.918-1.663,0.918-3.034c0-1.36-0.306-2.352-0.918-2.975c-0.612-0.623-1.479-0.935-2.601-0.935h-0.867V13.052z"/>
	<path d="M48.055,14.65V3.532h3.757c0.771,0,1.465,0.102,2.083,0.306s1.105,0.547,1.462,1.028
		c0.357,0.482,0.536,1.137,0.536,1.964c0,0.85-0.201,1.536-0.604,2.057c-0.402,0.521-0.938,0.896-1.606,1.122l2.652,4.641h-2.21
		l-2.397-4.352h-1.7v4.352H48.055z M50.026,8.734h1.581c0.759,0,1.34-0.162,1.743-0.484c0.402-0.323,0.604-0.796,0.604-1.419
		c0-0.635-0.201-1.08-0.604-1.334c-0.402-0.255-0.983-0.383-1.743-0.383h-1.581V8.734z"/>
	<path d="M56.8,14.65l3.621-11.118h2.312l3.621,11.118H64.28l-0.867-3.009h-3.74l-0.867,3.009H56.8z M60.523,8.734
		l-0.391,1.36h2.839l-0.391-1.36c-0.182-0.589-0.354-1.196-0.519-1.819c-0.165-0.624-0.326-1.241-0.484-1.853h-0.068
		c-0.147,0.624-0.303,1.244-0.467,1.861C60.877,7.541,60.705,8.145,60.523,8.734z"/>
	<path d="M67.73,14.65L65.52,3.532h2.023l0.969,5.61c0.091,0.589,0.184,1.181,0.281,1.776
		c0.096,0.595,0.184,1.188,0.263,1.776h0.068c0.125-0.589,0.247-1.182,0.365-1.776c0.119-0.595,0.241-1.187,0.366-1.776l1.36-5.61
		h1.717l1.36,5.61c0.125,0.578,0.249,1.165,0.374,1.759c0.125,0.595,0.249,1.193,0.374,1.793h0.068
		c0.09-0.601,0.181-1.195,0.272-1.785c0.09-0.589,0.176-1.178,0.255-1.768l0.969-5.61h1.887L76.366,14.65h-2.448l-1.377-5.848
		c-0.091-0.431-0.179-0.861-0.264-1.292c-0.085-0.431-0.162-0.855-0.229-1.275H71.98c-0.08,0.419-0.162,0.844-0.247,1.275
		c-0.085,0.431-0.173,0.861-0.264,1.292l-1.343,5.848H67.73z"/>
</g>
<g id="Balloon" fill="#979797">
	<polygon fill="#61A706" points="92.754,22.511 90.251,22.511 89.938,20.634 93.067,20.634"/>
	<path d="M96.086,1.379c2.426,1.619,3.059,3.988,2.786,6.126c-0.567,5.661-6.43,12.107-5.962,11.685
		c1.306-1.109,5.701-6.332,6.526-11.223C100.264,3.073,96.086,1.379,96.086,1.379z"/>
	<path d="M83.992,7.505c-0.273-2.138,0.362-4.507,2.786-6.125c0,0-4.177,1.694-3.351,6.587
		c0.826,4.892,5.224,10.114,6.527,11.223C90.423,19.612,84.56,13.166,83.992,7.505z"/>
	<path d="M88.793,8.39c0.174,2.981,0.945,6.928,2.267,11.054h0.653c1.319-4.126,2.09-8.071,2.264-11.052
		c0.251-4.305-0.643-7.07-2.073-7.834c-0.133-0.071-0.28-0.131-0.518-0.135C91.149,0.426,91,0.49,90.867,0.562
		C89.437,1.324,88.544,4.086,88.793,8.39z"/>
	<path d="M90.713,19.394c0,0-3.868-6.395-4.148-11.969C86.285,1.849,90.173,0.4,90.173,0.4
		c-0.362,0.015-1.169,0.247-1.931,0.604s-3.453,1.987-3.505,6.012C84.806,10.83,88.332,17.313,90.713,19.394z"/>
	<path d="M96.281,7.424C96,13,92.134,19.394,92.134,19.394c2.38-2.081,5.907-8.564,5.976-12.378
		c-0.053-4.025-2.744-5.654-3.506-6.012c-0.761-0.357-1.567-0.589-1.93-0.604C92.673,0.4,96.56,1.849,96.281,7.424z"/>
</g>
</svg>
